<svg width="241" height="241" viewBox="0 0 241 241" fill="none" xmlns="http://www.w3.org/2000/svg">
<g id="action_icon">
<path id="Star" d="M120.5 1.09996L156.177 71.0091L156.293 71.2357L156.544 71.2757L234.056 83.6034L178.593 139.137L178.414 139.317L178.453 139.569L190.682 217.097L120.727 181.509L120.5 181.394L120.273 181.509L50.3184 217.097L62.5467 139.569L62.5863 139.317L62.4066 139.137L6.94382 83.6034L84.4562 71.2757L84.7074 71.2357L84.823 71.0091L120.5 1.09996Z" fill="#6B8BD5" stroke="#6B8BD5"/>
<g id="Mask Group">
<mask id="mask0" mask-type="alpha" maskUnits="userSpaceOnUse" x="81" y="84" width="85" height="85">
<g id="running" clip-path="url(#clip0)">
<g id="Group">
<g id="Group_2">
<g id="Group_3">
<path id="Vector" d="M164.552 102.495L164.345 102.287C162.39 100.333 159.205 100.329 157.239 102.293L149.59 110.023C149.187 110.427 148.542 110.443 148.122 110.057L137.397 100.155C136.355 99.1928 135 98.6639 133.58 98.6639H117.627C117.25 98.6639 116.89 98.8074 116.618 99.0654L103.096 111.904C101.115 113.886 100.979 117.082 102.795 119.027C103.764 120.068 105.074 120.64 106.482 120.64H106.507C107.903 120.633 109.245 120.04 110.173 119.026L119.722 108.92H123.14L100.855 133.826H87.1093C83.8508 133.826 81.1713 136.263 81.0087 139.373C80.9222 140.998 81.4906 142.542 82.6086 143.72C83.7103 144.882 85.2589 145.547 86.8603 145.547H107.372C107.776 145.547 108.163 145.38 108.441 145.083L118.95 133.864L127.788 143.106L125.12 160.157C124.447 162.982 125.802 165.859 128.341 166.994C129.124 167.346 129.954 167.522 130.781 167.522C131.67 167.522 132.555 167.318 133.37 166.915C134.943 166.136 136.074 164.71 136.486 162.937L141.044 138.489C141.132 138.015 140.981 137.525 140.638 137.184L128.473 125.036L138.137 115.387L144.874 122.122C146.755 124.003 150.034 124.003 151.913 122.122L164.553 109.484C165.486 108.55 166 107.308 166 105.989C166 104.67 165.486 103.429 164.552 102.495Z" fill="black"/>
<path id="Vector_2" d="M148.394 103.059C153.242 103.059 157.184 99.1166 157.184 94.2686C157.184 89.4205 153.242 85.4779 148.394 85.4779C143.546 85.4779 139.603 89.4205 139.603 94.2686C139.603 99.1166 143.546 103.059 148.394 103.059Z" fill="black"/>
</g>
</g>
</g>
</g>
</mask>
<g mask="url(#mask0)">
<rect id="Rectangle 3" x="56" y="56" width="143" height="143" fill="#1F1F1F"/>
</g>
</g>
</g>
<defs>
<clipPath id="clip0">
<rect width="85" height="85" fill="white" transform="translate(81 84)"/>
</clipPath>
</defs>
</svg>
