<svg width="241" height="241" viewBox="0 0 241 241" fill="none" xmlns="http://www.w3.org/2000/svg">
<path d="M120.5 1.09996L156.177 71.0091L156.293 71.2357L156.544 71.2757L234.056 83.6034L178.593 139.137L178.414 139.317L178.453 139.569L190.682 217.097L120.727 181.509L120.5 181.394L120.273 181.509L50.3184 217.097L62.5467 139.569L62.5863 139.317L62.4066 139.137L6.94382 83.6034L84.4562 71.2757L84.7074 71.2357L84.823 71.0091L120.5 1.09996Z" fill="#6B8BD5" stroke="#6B8BD5"/>
<mask id="mask0" mask-type="alpha" maskUnits="userSpaceOnUse" x="71" y="91" width="101" height="69">
<path d="M165.991 124.367C164.389 124.367 162.991 125.129 162.071 126.293C156.855 122.524 145.378 116.281 135.403 125.387C135.403 125.387 125.3 111.449 132.119 100.076C132.942 100.671 133.948 101.032 135.045 101.032C137.81 101.032 140.061 98.7883 140.061 96.0161C140.061 93.2438 137.81 91 135.045 91C132.276 91 130.022 93.2438 130.022 96.0161C130.022 96.5778 130.129 97.1095 130.303 97.6145C123.144 100.353 110.787 107.172 108.935 122.049C108.935 122.049 97.468 106.864 80.2663 116.719C79.3802 115.298 77.8185 114.341 76.0194 114.341C73.2472 114.341 71 116.589 71 119.357C71 122.126 73.2472 124.373 76.0194 124.373C78.7883 124.373 81.0321 122.126 81.0321 119.357C81.0321 119.2 80.9987 119.053 80.9853 118.899C86.9845 119.367 96.6019 124.671 99.2471 152.845L99.548 155.145C99.548 157.509 109.105 159.422 120.89 159.422C132.681 159.422 142.235 157.503 142.235 155.145C142.235 155.145 143 135.817 160.998 129.654C161.135 132.299 163.299 134.412 165.984 134.412C168.76 134.412 171 132.162 171 129.396C171.013 126.611 168.766 124.367 165.991 124.367Z" fill="black"/>
</mask>
<g mask="url(#mask0)">
<rect x="61" y="81" width="139" height="94" fill="#1F1F1F"/>
</g>
</svg>
