<svg width="241" height="241" viewBox="0 0 241 241" fill="none" xmlns="http://www.w3.org/2000/svg">
<path d="M120.5 1.09996L156.177 71.0091L156.293 71.2357L156.544 71.2757L234.056 83.6034L178.593 139.137L178.414 139.317L178.453 139.569L190.682 217.097L120.727 181.509L120.5 181.394L120.273 181.509L50.3184 217.097L62.5467 139.569L62.5863 139.317L62.4066 139.137L6.94382 83.6034L84.4562 71.2757L84.7074 71.2357L84.823 71.0091L120.5 1.09996Z" fill="#6B8BD5" stroke="#6B8BD5"/>
<mask id="mask0" mask-type="alpha" maskUnits="userSpaceOnUse" x="78" y="84" width="85" height="85">
<g clip-path="url(#clip0)">
<path d="M111.47 141.566V135.991L95.9373 140.372C95.9373 140.372 97.0656 133.734 105.164 131.411C107.62 130.747 109.744 130.747 111.47 131.079V108.112H119.236C118.373 105.523 117.577 103.465 116.913 102.071C115.784 99.7478 114.59 101.275 112.001 103.531C110.142 105.058 105.429 108.444 98.3268 110.302C91.2243 112.227 85.5158 111.696 83.1261 111.298C79.7408 110.7 77.9486 109.97 78.1478 112.559C78.2806 114.816 78.8115 118.334 80.0729 123.047C82.728 133.136 91.5563 152.585 108.284 148.071C112.665 146.877 115.785 144.553 117.909 141.566H111.47V141.566ZM86.4452 123.179L98.3268 120.06C98.3268 120.06 97.995 124.64 93.5476 125.835C89.1003 126.963 86.4452 123.179 86.4452 123.179Z" fill="#E2574C"/>
<path d="M156.408 108.576C153.222 109.107 145.655 109.837 136.295 107.315C126.936 104.793 120.697 100.412 118.241 98.354C114.722 95.4334 113.196 93.4419 111.735 96.4953C110.408 99.2169 108.682 103.598 107.023 109.771C103.438 123.113 100.783 151.258 122.887 157.165C145.057 163.073 156.806 137.384 160.391 124.042C162.05 117.869 162.78 113.223 162.98 110.236C163.245 106.784 160.922 107.78 156.408 108.576ZM111.935 119.661C111.935 119.661 115.453 114.152 121.427 115.878C127.401 117.604 127.865 124.175 127.865 124.175L111.935 119.661ZM126.405 143.89C115.984 140.836 114.391 132.539 114.391 132.539L142.336 140.305C142.336 140.371 136.694 146.877 126.405 143.89ZM136.495 126.963C136.495 126.963 139.88 121.52 145.588 123.179C151.297 124.905 151.762 131.477 151.762 131.477L136.495 126.963Z" fill="#EFC75E"/>
<path d="M127.202 144.089L126.405 143.89C115.984 140.836 114.391 132.539 114.391 132.539L129.127 136.654L136.694 107.381C136.561 107.315 136.428 107.315 136.296 107.315C126.936 104.792 120.697 100.411 118.241 98.3538C114.723 95.4332 113.196 93.4417 111.735 96.4952C110.408 99.2167 108.682 103.598 107.023 109.771C103.571 122.582 100.982 149 120.431 156.368L123.75 157.364L127.202 144.089ZM111.935 119.661C111.935 119.661 115.453 114.152 121.427 115.878C127.401 117.604 127.865 124.175 127.865 124.175L111.935 119.661Z" fill="#DCB757"/>
<path d="M105.96 137.584L95.9373 140.438C95.9373 140.438 96.9994 134.198 104.367 131.742L98.6587 110.302C98.5259 110.368 98.3932 110.368 98.194 110.435C91.0914 112.36 85.383 111.829 82.9933 111.431C79.608 110.833 77.8158 110.103 78.015 112.692C78.1478 114.949 78.6787 118.467 79.94 123.18C82.728 133.136 91.5563 152.585 108.284 148.072L108.682 147.939C108.682 147.939 105.96 137.584 105.96 137.584ZM86.4452 123.179L98.3268 120.06C98.3268 120.06 97.995 124.64 93.5476 125.835C89.1003 126.963 86.4452 123.179 86.4452 123.179Z" fill="#D05046"/>
</g>
</mask>
<g mask="url(#mask0)">
<rect x="57" y="49" width="143" height="143" fill="#1F1F1F"/>
</g>
<defs>
<clipPath id="clip0">
<rect width="85" height="85" fill="white" transform="translate(78 84)"/>
</clipPath>
</defs>
</svg>
